<?xml version="1.0" encoding="UTF-8"?>
<svg id="Layer_2" data-name="Layer 2" xmlns="http://www.w3.org/2000/svg" xmlns:xlink="http://www.w3.org/1999/xlink" viewBox="0 0 1292.33 475.55">
  <defs>
    <style>
      .cls-1 {
        clip-path: url(#clippath);
      }

      .cls-2 {
        fill: none;
        stroke-width: 0px;
      }
    </style>
    <clipPath id="clippath">
      <path class="cls-2" d="m146.15,26.41c53.4-17.34,80.84-8.82,96,2,32.42,23.14,19.01,64.2,61,107,9.94,10.13,32.55,32.53,68,37,31.59,3.98,62.48-7.65,83-26,14.61-13.07,12.85-19.62,34-57,29.25-51.7,44.61-78.85,73-87,28.16-8.08,55.41,6.48,62,10,19.89,10.63,25.7,23.15,45,45,20.69,23.43,42.39,47.98,72,61,40.86,17.96,83.85,8.27,125-1,28.48-6.42,49.74-15.1,64-21,57.47-23.77,72.53-43.81,114-51,24.29-4.21,45.37-1.88,60,1,2.46.93,32.23,12.7,37,39,3.83,21.15-10.27,41.99-21,52-6.59,6.15-11.86,8.16-18,17-6.01,8.65-10.33,20.19-10,27,1.16,23.64,60.15,23.61,114,58,48.32,30.86,90.33,88.05,87,145-.75,12.8-3.65,23.19-6,30-6.94,9.05-18.51,21.47-36,30-28.75,14.02-58.19,10.09-88,3-96.05-22.85-102.52-56.32-167-64-58.28-6.94-106.34,14.04-124,22-48.93,22.05-46.04,40.2-81,57-87.55,42.06-149.58-50.68-272-27-69.22,13.39-108.47,54.47-131,35-24.42-21.1,7.35-81.75-22-103-13.61-9.85-35.87-7.99-50,0-24.53,13.87-17.27,42.1-49,65-6.25,4.51-18.1,12.83-32,11-8.14-1.07-11.42-4.89-23-10,0,0-13.21-5.83-33-9-25.6-4.1-34.98,9.05-82,20-37.77,8.8-50.49,4.69-55,3-19.76-7.38-29.83-23.38-32-27C-3.16,399.87.18,379.43,1.15,374.41c2.39-8.41,6.95-20.9,16-34,4.88-7.06,14.95-21.64,33-32,9.84-5.65,20.34-9.05,37-20,2.43-1.6,5.5-3.69,9-7,3.46-3.28,12.78-12.1,15-23,2.69-13.21-5.91-25.27-15-38-9.28-13-13.27-12.74-18-23-1.19-2.57-10.26-22.22-2-32,8.77-10.37,31.72-3.31,36-2,25.96,7.98,29.86,25.95,46,25,13.02-.76,23.88-13.23,28-24,9.35-24.45-12.29-50.04-14-52-20.61-23.68-47.52-19.22-53-39-2.65-9.56,1.31-18.98,3-23,6.68-15.9,20.57-22.49,24-24Z"/>
    </clipPath>
  </defs>
  <g id="Layer_2-2" data-name="Layer 2">
    <g class="cls-1">
      <image width="3130" height="2075" transform="translate(1.15 -236.59) scale(.42)" xlink:href="../../../../../IMG_6029.JPG"/>
    </g>
  </g>
</svg>