<?xml version="1.0" encoding="UTF-8"?>
<svg id="Layer_2" data-name="Layer 2" xmlns="http://www.w3.org/2000/svg" viewBox="0 0 773.15 896.87">
  <defs>
    <style>
      .cls-1 {
        fill: #c61f1f;
        stroke-width: 0px;
      }
    </style>
  </defs>
  <g id="Layer_1-2" data-name="Layer 1">
    <path class="cls-1" d="m51.78,836.98c-9.7-13.17-16.75-27.59-21.25-43.3s-6.76-31.18-9.11-46.93c-4.43-29.73-4.49-59.93-1.42-89.79,7.73-75.25,34.87-146.72,58.92-217.88,24.68-73.03,47.18-149.08,44.51-226.99-.66-19.34-3.02-38.61-6.96-57.56s-8.87-36.41-9.83-55.08c-.81-15.78,1.63-32.17,12.6-44.27s27.05-17.55,42.91-19.78c17.27-2.43,35.74-2.26,52.6,2.45,13.87,3.87,25.76,11.68,35.52,22.19,21.91,23.6,30.52,55.69,39.15,85.84,9.22,32.2,19.98,65.1,44.57,89.09,10.95,10.68,24.31,19.29,39.17,23.27,16.04,4.3,32.67,2.77,47.9-3.62,30.54-12.83,53.78-40.36,73.79-65.78,22.85-29.03,42.8-60.16,65-89.67,20.08-26.68,42.91-54.3,72.74-70.42,24.7-13.35,56.73-16.48,79.06,3.22,23.5,20.73,30.82,54.37,33.55,84.24,3.44,37.56,1.3,75.66-1.64,113.17-3.11,39.63-6.9,79.19-9.01,118.9-2.11,39.71-2.97,79.5-1.9,119.25,1.06,39.64,4.55,79.06,9.06,118.44s9.72,78.48,12.15,117.92c1.12,18.14,1.94,36.53.75,54.7-.83,12.76-3.01,26.06-8.61,37.67-6.09,12.64-15.52,21.87-28.22,27.81-14.2,6.64-30.49,8.12-45.96,6.99-30.18-2.22-59.04-15.88-80.22-37.39-23.44-23.81-35.97-55.78-41.31-88.34-6.1-37.27-1.83-75.4,5.35-112.19,7.45-38.12,17.6-75.66,24.73-113.84,7.24-38.79,11.67-78.18,13.53-117.59.64-13.54,2.63-28.08.34-41.54-2.7-15.86-15.54-25.19-31.35-25.35-16.85-.18-33.21,9.02-46.28,18.9s-24.65,21.85-36.15,33.72c-21.19,21.86-48.86,49.15-82.19,45.01-15.96-1.98-29.38-11.59-41.99-20.84s-24.63-18.25-39.12-23.77c-30.85-11.76-63.63,1.83-84.36,25.83-49.91,57.78-18.1,138.9-2.27,203.42,17.41,70.94,26.38,151.19-2.93,220.35-10.18,24.03-24.2,48.07-46.17,63.06-4.99,3.41-10.27,6.34-15.73,8.93-.78.37-1.56.73-2.34,1.08-.44.2-.89.39-1.33.59-1.39.61,2.05-.81-.43.18s-4.97,1.92-7.51,2.75c-13.61,4.46-28.37,6.43-42.59,3.99-14.1-2.41-27.48-8.35-38.45-17.57-4.62-3.88-8.87-8.18-12.82-12.74s-5.37-6.53-8.47-10.7c-2.9-3.89-7.79-5.88-12.31-3.23-3.84,2.24-6.15,8.39-3.23,12.31,7.13,9.57,14.52,18.94,23.66,26.7,12.61,10.72,27.48,18.59,43.76,21.99,26.88,5.62,54.75-.37,78.51-13.58,25.47-14.16,43-37.43,55.65-63.16,16.19-32.93,24.16-68.67,26.07-105.22,2.06-39.39-2.86-78.97-10.75-117.51-7.81-38.19-20.62-75.29-26.83-113.83-5.04-31.31-3.56-65.85,16.6-91.89,8.7-11.24,20.55-21.07,34.19-25.54,14.04-4.6,28.34-2.79,41.38,3.92s25.24,17.06,37.81,25.65c14.56,9.95,30.86,17.21,48.81,17.18,35.89-.07,64.67-26.44,88.11-50.63,11.18-11.53,22.22-23.62,35.34-32.99,10.71-7.65,28.79-19.41,42.43-12.67,1.78.88,3.08,2.23,3.74,3.42,1.02,1.83,1.74,4.03,2.19,7.03.18,1.2.33,5.58.29,8-.05,3.11-.25,6.21-.44,9.3-1.1,18.23-1.61,36.44-3.22,54.65-3.47,39.36-10.01,78.18-18.66,116.71s-18.79,77.81-23.29,117.6c-7.9,69.93,6.6,149.14,67.52,192.22,26.49,18.73,60.99,28.69,93.41,25.38,16.58-1.69,33.42-6.55,46.91-16.67,12.15-9.11,20.51-21.37,25.85-35.51,5.14-13.62,7.03-28.46,7.6-42.93.77-19.46-.18-39.05-1.59-58.46-2.9-39.99-8.3-79.76-12.74-119.59-4.46-40-7.48-80.06-8.17-120.31-.69-40.64.55-81.29,3.01-121.85,2.42-39.96,6.61-79.78,9.32-119.72,2.6-38.33,4.06-77.54-1.71-115.65-4.77-31.48-16.25-63.92-42.59-83.67-26.74-20.05-62.49-17.42-91.18-3.17-31.85,15.81-56.22,44.13-77.57,71.8-22.58,29.26-42.41,60.52-65,89.78-10.76,13.94-22.2,27.49-34.81,39.79-10.76,10.49-22.93,20.61-37.13,26.07-13.84,5.32-28.63,5.37-42.37-.34-13.31-5.52-24.63-15.66-33.34-26.97-21.23-27.55-27.38-62.97-37.61-95.37s-23.99-61.34-50.41-81.17c-13.74-10.31-30-15.57-46.91-17.71-18.43-2.33-38.11-1.4-56.15,3.16-16.26,4.11-31.78,12.25-42.3,25.57-11.36,14.39-15.57,32.19-15.12,50.32.48,19.7,5.39,39.01,9.54,58.17s6.63,37.67,7.34,56.88c1.45,39.33-3.84,78.5-12.56,116.78-17.54,76.96-48.75,149.83-70.22,225.65-9.93,35.07-17.53,70.71-20.99,107.03-3.06,32.17-1.67,64.08,3.22,96.01,4.89,31.9,11.89,62.87,31.39,89.35,2.88,3.91,7.8,5.87,12.31,3.23,3.85-2.25,6.13-8.38,3.23-12.31Z"/>
  </g>
</svg>