<?xml version="1.0" encoding="UTF-8"?>
<svg id="Layer_2" data-name="Layer 2" xmlns="http://www.w3.org/2000/svg" viewBox="0 0 1294.09 477.37">
  <defs>
    <style>
      .cls-1 {
        fill: #c61f1f;
        stroke-width: 0px;
      }
    </style>
  </defs>
  <g id="Layer_2-2" data-name="Layer 2">
    <path class="cls-1" d="m258.44,444.4c-25.88,7.56-46.2-12.85-70.55-17.52-11.91-2.28-21.16-1.19-32.2,3.16-19.55,7.69-39.68,13.17-60.21,17.58-18.45,3.96-37.83,7.39-56.06.45-16.1-6.12-27.9-19.52-33.17-35.77-11.09-34.19,6.75-68.49,32.59-90.46,13.75-11.69,29.83-19.21,44.99-28.74,11.02-6.93,22.78-15.55,27.51-28.2,11.9-31.84-30.09-47.96-34.6-75.93-1.28-7.91,1.01-16.41,8.22-20.77,7.77-4.7,17.46-2.41,25.05,1.48,12.43,6.39,21.78,18.2,35.37,22.46,27.65,8.65,48.44-21.35,44.95-46.48-2.09-15.07-11.79-28.14-22.93-37.97-11.89-10.5-26.33-16.25-39.11-25.28-5.01-3.54-9.56-8.38-9.57-14.94,0-4.82,2.32-9.36,4.82-13.32,4.36-6.92,10.02-13.1,16.31-18.32,12.49-10.38,28.08-17.16,44.22-19.02,30.52-3.52,60.17,11.38,77.68,36.19,17.21,24.38,20.84,55.41,36.43,80.7,15,24.32,41.03,39.3,69.13,42.82,29.48,3.7,58.72-6.14,81.99-24.16,25.98-20.13,39.42-47.97,52.84-77.14,12.92-28.08,29.7-59.3,61.14-69.6s61.5,8.92,82.66,30.74c21.03,21.68,36.95,48.08,60.5,67.35,25.41,20.8,56.71,26.96,88.95,25.05,35.24-2.09,71.12-10.06,105.11-19.27,16.95-4.59,33.73-10.06,49.85-17.05,15.42-6.68,30.09-14.93,45-22.66,27.83-14.45,58.22-27.48,90.31-23.55,14.94,1.83,29.42,7.83,39.83,18.95,11.87,12.67,19.1,31.98,13.71,49.1-8.71,27.65-48.69,35.61-50.41,66.58-.63,11.28,6.29,20.55,16.41,24.94,7.26,3.15,15.26,4.1,22.94,5.75,9.21,1.97,18.27,4.61,27.11,7.86,63.94,23.52,119.13,80.8,133.45,148.37,3.71,17.51,3.99,36.84-5.92,52.48-9.3,14.69-25.52,24.03-41.75,29.16-34.91,11.03-72.46,3.11-105.82-9.42-34.17-12.83-66.38-30.22-101.38-40.92-32.7-9.99-67.53-15.62-101.72-11.87-31.8,3.49-59.8,15.76-84.33,36.1-11.84,9.81-23.04,20.48-35.86,29.03-14.77,9.84-31.41,15.5-48.99,17.64-73.33,8.93-139.31-34.94-211.15-39.61-17.35-1.13-34.58.45-51.36,5.02s-32.41,11.96-48.03,19.31c-7.85,3.7-15.7,7.41-23.69,10.81-9.07,3.86-19.37,8.71-29.41,9.12-19.07.78-25.06-19.3-24.18-34.88s7.23-32.54,1.18-48.28c-3.92-10.19-13.14-17.24-22.9-21.46-18.66-8.08-42.32-6.9-50.33,14.45-4.11,10.95-5.53,22.56-11.31,32.93-7.16,12.86-19.41,22.39-33.29,27.01-1.82.61-1.04,3.51.8,2.89,11.96-3.99,22.79-11.36,30.49-21.41,7.73-10.08,10.69-21.95,14.08-33.94,3.75-13.29,10.56-22.76,25.37-23.64,13.07-.77,27.42,4.36,36.9,13.4,24.26,23.12-6,59.89,12.6,85.97,8.71,12.22,22.73,10.93,35.45,6.65,16.65-5.6,32.36-13.66,48.27-21.03,17.51-8.11,35.35-15.32,54.49-18.46,19.35-3.18,39.13-1.95,58.37,1.42,37.06,6.48,72.1,20.7,108.55,29.61,33.82,8.27,70.71,12.8,104.42,1.57,29.34-9.78,49.18-33.81,73.62-51.34,62.76-45.01,147.42-26.63,213.08,1.41,33.1,14.13,65.65,30.95,101.39,37.37,31.57,5.67,67.03,3.29,93.49-16.64,11.38-8.57,19.72-20.31,22.74-34.34,3.4-15.79.71-32.31-3.66-47.63-9.13-31.99-27.38-61.4-50.29-85.36-22.97-24.03-51.36-42.92-82.58-54.39-8.09-2.97-16.38-5.44-24.78-7.35s-18.43-2.77-26.58-6.9c-18.64-9.43-14.03-30.65-2.11-43.61,9.62-10.46,22.52-17.36,31.38-28.58s11.95-25.42,8.58-39.61c-6.6-27.81-31.31-44.65-58.65-47.44-30.44-3.1-59.47,8.53-86.05,22.1-15.62,7.98-30.88,16.71-46.94,23.82-17.23,7.63-35.3,13.42-53.49,18.26-18.52,4.93-37.31,8.79-56.14,12.29-18.23,3.39-36.63,6.33-55.21,6.6-19.18.28-38.96-2.36-56.36-10.84-14.13-6.88-26.17-17.18-36.87-28.56-20.74-22.05-36.88-48.4-60.98-67.21-22.46-17.53-51.4-26.35-78.17-13.15s-42.65,42.33-54.99,69.29c-7.07,15.45-13.91,31.14-23.56,45.21-9.5,13.83-21.83,25.85-35.87,35.03-28.06,18.35-62.98,23.96-94.68,11.94-16.44-6.23-31.07-17-41.09-31.52-8.94-12.95-14.29-27.89-19.6-42.58-9.64-26.67-20.97-51.86-45.95-67.49-23.59-14.76-53.14-16.82-78.64-5.78-13.06,5.65-24.75,14.45-33.61,25.61-8.41,10.6-14.82,24.08-3.59,35.13,4.73,4.65,10.89,7.53,16.62,10.71,8.09,4.49,16.06,9.3,23.27,15.12,14.15,11.42,27.01,28.13,25.68,47.29-1.23,17.7-14.47,37.58-34.06,36.36-16.89-1.05-27.92-16.28-42.05-23.58-9.55-4.93-22.01-7.07-30.82.51-9.34,8.03-8.49,21.4-3.91,31.74,6.16,13.89,18.84,23.07,26.99,35.6,5.16,7.93,8.13,17.01,5.56,26.42-2.41,8.81-8.87,15.75-15.83,21.33-13.59,10.91-29.92,17.63-44.24,27.45-13.43,9.21-25.75,20.54-34.77,34.18-16.36,24.77-20.67,59.16-3.52,84.74,7.5,11.18,18.79,19.42,31.69,23.25,16.49,4.9,33.63,2.38,50.12-1.07,21.6-4.52,42.82-10.11,63.37-18.19,13.13-5.16,23.89-5.65,38-1.59,22.44,6.46,40.52,22.99,65.08,15.82,1.85-.54,1.06-3.44-.8-2.89Z"/>
  </g>
</svg>