<?xml version="1.0" encoding="UTF-8"?>
<svg id="Layer_2" data-name="Layer 2" xmlns="http://www.w3.org/2000/svg" viewBox="0 0 729.51 828.42">
  <defs>
    <style>
      .cls-1 {
        fill: #c61f1f;
        stroke-width: 0px;
      }
    </style>
  </defs>
  <g id="Layer_2-2" data-name="Layer 2">
    <path class="cls-1" d="m100,63.49c-19.98-3.41-39.5,6.44-54.58,18.76-17.65,14.41-30.52,33.34-38.83,54.43-2.31,5.86-4.52,11.51-5.55,17.78-2.13,12.96-.75,26.27,1.98,39.03,11.01,51.48,43.05,94.32,64.18,141.65,11.01,24.67,19.16,51.93,14.67,79.15-4.61,27.92-22.98,49.59-37.11,73.16-20.1,33.53-26.86,73.91-21.61,112.45,5.02,36.79,21.42,73.36,50.32,97.49,15.7,13.1,34.24,21.45,54.24,25.46,28.5,5.71,58.12,4.08,86.22,12.1,51.93,14.82,89.46,56.76,137.84,78.67,22.14,10.02,46.94,16.74,71.41,14.3,22.81-2.27,42.55-13.29,57.11-30.86,26.76-32.31,37.57-80.96,79.95-97.71,39.71-15.7,84.27-2.71,124.35-16.42,19.32-6.61,34.88-20.8,41.27-40.47,7.19-22.11,2.97-46.92-6.03-67.85-10.97-25.53-29.09-47.11-43.89-70.39-14.86-23.36-25.09-48.95-29.37-76.36-4.3-27.51-2.69-56.01,4.97-82.79,7.74-27.09,21.84-51.66,34.8-76.48,11.73-22.46,23.22-45.84,27.13-71.12,3.2-20.7,2.15-42.74-5.87-62.28-7.58-18.45-21.62-33.14-40.44-40.16-19.84-7.41-41.7-5.77-62.28-3.07-21.56,2.83-43.22,7.49-65.08,6.63-10.5-.41-21.04-2.3-30.62-6.75-10.37-4.81-18.81-12.45-25.83-21.38-14.18-18.04-23.46-40.15-42.54-53.93C424.36,4.64,403.62.19,383.59,0c-22.16-.21-44.38,4.49-65.07,12.25-20.61,7.73-41.75,18.65-57.13,34.7-5.62,5.86-9.93,13-16.05,18.37-8.04,7.04-19.03,10.53-29.31,12.69-23.31,4.9-47.91,2.42-71.03-2.31-8.56-1.75-17.05-3.89-25.44-6.33-6.47-1.88-12.96-4.61-19.56-5.9-1.89-.37-2.69,2.52-.8,2.89,6.61,1.28,13.09,4.01,19.56,5.9,8.73,2.54,17.55,4.75,26.46,6.54,21.74,4.36,44.44,6.61,66.46,3.05,10.39-1.68,21.16-4.66,30.18-10.27,6.64-4.13,11.17-10.07,16.01-16.06,14.08-17.41,34.26-29.2,54.7-37.72,20.57-8.57,42.76-14.04,65.08-14.74,20.5-.64,41.9,2.88,59.27,14.39,19.65,13.02,29.16,35.25,43.03,53.44,12.83,16.82,29.74,27.31,50.82,29.95,42.06,5.28,84.11-15.41,125.94-5.82,20.8,4.77,37.46,18.3,46.52,37.6,9.25,19.69,10.64,42.77,7.35,64.03-3.9,25.27-15.4,48.57-27.14,71.01-12.48,23.85-25.93,47.49-33.84,73.37-15.34,50.24-9.3,106.47,16.33,152.31,24.34,43.53,70.03,85.78,59.05,140.57-4.4,21.95-19.78,38.64-40.74,45.94-19.43,6.77-40.58,6.75-60.91,7.36s-41.93,1.22-61.53,8.32c-19.15,6.95-33.45,20.55-44.76,37.18-11.89,17.48-20.59,36.91-32.79,54.2-13.57,19.23-31.93,33.35-55.58,37.26-25.15,4.15-51.3-2.44-74.24-12.65-23.53-10.47-44.36-25.87-65.49-40.38-21.14-14.52-42.96-28.72-67.42-36.99-27.1-9.16-55.81-8.41-83.81-12.62-21.62-3.25-41.98-10.44-59.32-24-14.5-11.34-26.12-26.04-34.71-42.27-18.1-34.19-23.38-75.17-16.33-113.07,3.63-19.5,10.67-38.05,21.01-54.98,13.78-22.55,31.02-43.6,36.02-70.25,9.78-52.14-23.34-101.25-46.69-144.98-12.04-22.55-23.14-45.92-29.75-70.71-3.7-13.87-6.12-28.52-4.49-42.89.78-6.88,2.82-13.27,5.45-19.63,8.01-19.32,18.55-36.53,34.22-50.66,14.83-13.38,35.3-25.29,56.03-21.75,1.89.32,2.7-2.57.8-2.89Z"/>
  </g>
</svg>