<?xml version="1.0" encoding="UTF-8"?>
<svg id="Layer_2" data-name="Layer 2" xmlns="http://www.w3.org/2000/svg" viewBox="0 0 1624.35 901.46">
  <defs>
    <style>
      .cls-1 {
        fill: #c61f1f;
        stroke-width: 0px;
      }
    </style>
  </defs>
  <g id="Layer_1-2" data-name="Layer 1">
    <path class="cls-1" d="m.95,164.81c-4.83,36.42,9.46,70.32,25.8,102.05,13.84,26.87,33.42,50.13,46.59,77.43,9.5,19.69,17.34,40.5,18.63,62.52s-4.4,43.72-11.27,64.58c-13.75,41.8-28.79,83.17-43.25,124.73-13.67,39.29-27.68,80.13-24.22,122.36,3.01,36.84,17.78,72.35,40.35,101.48,46.73,60.32,125.26,87.87,200.03,80.25,85.64-8.73,158.72-63.59,244.6-71.03,89.02-7.72,173.99,27.9,259.5,46.31,40.42,8.7,82.28,14.07,123.49,7.99,39.39-5.81,74.22-24.55,108.07-44.52,35.24-20.79,74.01-45.11,116.8-39.97,22.07,2.65,40.85,13.93,60.06,24.24,17.28,9.27,35.32,16.26,54.39,20.89,40.01,9.72,82.04,11.26,123.02,12.33,43.4,1.13,87.17.48,130.41-3.6,36.98-3.49,75.24-11.42,105.59-34.07,25.63-19.12,45.05-48.24,44.8-81.1-.28-35.74-22.07-67.43-45.27-92.85-26.56-29.1-59-54.31-77.06-90.13-41.92-83.13,23.17-165.54,70.01-229.61,23.57-32.24,48.51-66.24,46.8-108.1-.82-19.96-6.19-39.42-12.6-58.23-5.71-16.76-11.66-33.63-19.1-49.71-14.13-30.5-35.06-54.76-67.67-65.54-19.84-6.55-40.98-9.03-61.54-12.27-20.94-3.3-41.91-6.43-62.96-8.95-44.61-5.36-89.92-8.01-134.68-2.73-42.83,5.05-83.41,19.15-125.29,28.66-22.48,5.11-45.28,8.49-68.39,7.97s-45.14-4.44-67.12-9.92c-41.7-10.4-81.79-26.29-123.47-36.74s-80.46-13.54-120.78-3.72c-40.75,9.93-77.38,31.39-113.41,52.11-36.83,21.18-74.78,43.69-116.96,52.03-44.92,8.88-87.97-1.91-129.85-18-36.17-13.89-71.59-29.33-108.81-40.35-35.45-10.5-71.16-14.91-108.1-14.31-31.37.51-61.99,6.1-89.97,20.81-17.96,9.44-34.82,21.46-49.2,35.81C19.54,113.23,5.3,137.16,1.01,164.41c-.3,1.89,2.59,2.7,2.89.8,7.66-48.59,47-85.29,89.38-106.39,32.85-16.35,68.49-19.13,104.59-18.53,37.06.61,72.78,8.95,107.78,20.62,37.64,12.55,73.57,29.54,111.17,42.12s78.18,17.74,117.88,7.78c80.25-20.12,142.05-83.3,222.74-102.45,85.86-20.39,165.56,23.05,247.16,42.25,40.7,9.57,80.98,10.94,122,2.5,42.89-8.82,84.2-23.97,127.74-29.79s86.64-3.98,129.66.71c22.36,2.44,44.64,5.67,66.86,9.12,20.76,3.23,42.02,5.73,62.25,11.55,18.27,5.25,34.55,14.07,47.47,28.17,11.74,12.81,20.09,28.41,26.89,44.28,7.49,17.46,14,35.62,19.56,53.79,6.27,20.49,10.72,42.1,8.18,63.6s-12.75,40.58-24.33,58.36c-11.56,17.76-24.38,34.67-36.96,51.7-22.43,30.34-44.55,61.68-57.32,97.5-12.59,35.3-15.33,74.4.45,109.14s44.69,59.19,70.37,85.61c26.38,27.14,53.61,61.01,53.93,100.82.29,37.29-25.32,69.13-56.35,87.12-35.6,20.65-77.9,24.74-118.17,27.01-43.46,2.45-87.03,2.72-130.51.62-41.4-1.99-83.84-4.94-122.94-19.8-18.74-7.12-35.4-18.2-53.51-26.63-16.99-7.91-35.2-11.93-53.98-10.36-36.95,3.08-69.36,23.81-100.5,42.12-35.6,20.94-72.14,39.52-113.8,43.94-85.47,9.05-168.64-25.43-250.58-43.94-40.7-9.19-82.58-15.29-124.36-11.44-41.01,3.78-79.64,18.42-117.61,33.49-38.7,15.36-77.86,31.39-119.47,36.72-41.43,5.31-84.55-.17-123-16.63-71.98-30.8-124.92-104.26-120.61-184.1,2.29-42.41,18.78-82.97,32.7-122.61,14.07-40.05,30.38-80.15,41.04-121.27,4.59-17.71,6.84-35.85,4.4-54.08-2.6-19.36-9.71-37.57-18.16-55.06-12.68-26.25-31.27-48.66-44.94-74.28C13.96,236.57-.94,201.72,3.95,164.81c.25-1.91-2.75-1.89-3,0Z"/>
  </g>
</svg>