<?xml version="1.0" encoding="UTF-8"?>
<svg id="Layer_2" data-name="Layer 2" xmlns="http://www.w3.org/2000/svg" viewBox="0 0 1578.79 661.43">
  <defs>
    <style>
      .cls-1 {
        fill: #c61f1f;
        stroke-width: 0px;
      }
    </style>
  </defs>
  <g id="Layer_1-2" data-name="Layer 1">
    <path class="cls-1" d="m40.07,587.76c-7.35-16.86-8.74-35.68-3.52-53.35,4.19-14.2,12.74-26.4,21.54-38.1s18.36-24.05,20.11-38.91-5.82-26.38-14.62-36.84c-22.16-26.36-46.65-51.3-56.5-85.32-5.39-18.62-6.15-39.22.69-57.57,6.23-16.72,19.11-29.35,33.58-39.23,24.85-16.96,57.57-28.68,71.98-57.09s6.25-60.37,16.65-89.12c12.3-34.01,53.1-49.25,84.72-59.56,36.73-11.98,75.82-16.48,114.32-13.3,19.63,1.62,39.09,5.3,57.97,10.94,17.57,5.25,34.28,12.7,51.36,19.27,31.88,12.25,63.23,17.89,95.62,4.11,32.57-13.86,59.45-40.48,94.58-48.4,40.06-9.03,67.21,18.6,93.04,44.46,23.5,23.52,49.35,41.71,84.12,39.34,33.11-2.26,62.94-19.21,90.3-36.67,29.71-18.96,59.65-40.93,95.02-47.63,39.09-7.39,73.49,10.8,105.83,30.49,28.58,17.4,57.87,35.99,92.03,39.07,36.09,3.25,71.24-8.95,105.41-18.75,34.81-9.98,77.94-22.12,111.97-3.29,37.56,20.79,19.06,65.35,23.14,99.28,3.94,32.8,27.22,58.62,51.19,79.43,26.05,22.62,55.54,42.04,76.04,70.32,10.33,14.25,18.17,30.71,19.52,48.46,1.37,17.99-4.2,35.41-11.38,51.67-13.04,29.53-32.89,59.55-26.73,93.35,3.01,16.56,11.35,31.67,13.85,48.34s-2.67,34.67-12.62,48.89c-20.73,29.63-56.85,43.58-92.11,43.42-74.32-.35-137.7-51.18-211.78-54.48-34-1.51-62.81,9.6-90.29,28.85-29.69,20.8-57.29,44.55-94.99,47.91-77.76,6.92-144.77-52.1-222.42-48.07-34.46,1.79-65.89,17.13-96.99,30.65-17.82,7.75-36.22,15.1-55.63,17.54s-38.32-1.48-55.96-10.75c-15.58-8.18-29.94-18.33-46.05-25.59-16.93-7.63-35-12.31-53.37-14.82-36.17-4.93-72.98-1.51-108.77,4.75s-71.43,15.85-107.06,24.13c-16.32,3.79-32.74,7.7-49.39,9.74-19.11,2.34-38.52,3.91-57.76,3.89-31.06-.02-62.09-5.66-91.79-14.64-26.25-7.94-52.58-20.92-64.87-46.86-.83-1.74-3.41-.22-2.59,1.51,11.35,23.95,34.61,37.39,58.82,45.71,28.46,9.78,59.26,15.87,89.3,17.06,37.51,1.49,74.97-3.47,111.45-11.77,74.88-17.03,152.96-42.88,230.53-29.29,19.91,3.49,38.83,9.93,56.66,19.44,14.89,7.94,28.66,18,44.31,24.47,33.55,13.89,68.03,3.32,99.81-10.28,34.97-14.97,70.18-32.98,109.24-32.05,40.56.97,78.92,17.35,116.67,30.52,35.26,12.3,73.53,23.57,111.04,15.41,33.94-7.39,59.46-31.55,87.5-50.27,14.59-9.74,30.21-17.87,47.48-21.56,20.3-4.34,41.45-3.29,61.74.51,37.72,7.06,72.67,23.21,108.72,35.68,32.78,11.33,67.92,19.89,102.66,13.33,30.2-5.7,59.48-23.85,73.97-51.59,6.38-12.22,9.38-26.02,7.76-39.77-2.02-17.17-10.59-32.62-13.92-49.48-7.61-38.51,19.41-71.61,31.68-105.97,11.01-30.81,6.45-60.78-12.22-87.52-19.86-28.44-48.76-48.08-74.82-70.26-14.2-12.08-27.86-25.22-38.2-40.85-11.23-16.97-16.32-35.38-15.96-55.69.3-16.89,4.06-33.97.99-50.8-2.59-14.19-10.61-25.87-22.91-33.38-29.48-18-68.35-10.97-99.72-2.74-37.71,9.89-75.67,25.42-115.32,23.61-73.28-3.35-123.24-81.49-199.11-70.73-72.63,10.3-121.16,85.34-196.75,85.3-40.07-.02-64.34-28.9-90.9-54.45-10.77-10.36-22.49-20.15-36.37-26.05-15.75-6.7-32.81-6.74-49.12-2.06-35.04,10.06-61.83,37.15-95.81,49.63-38.6,14.18-74.93-1.74-110.76-16.02-70.87-28.26-150.1-29.41-221.09-.6-28.12,11.41-58.43,25.94-68.46,56.87-10.01,30.87-.58,66.7-20.63,94.47s-56.18,36.64-80.59,59.29C.41,270.35-4.97,304.38,4.19,336.03c9.16,31.64,31.05,57.16,52.54,81.25,12.78,14.32,23.32,29.76,16.03,49.57-6.25,16.99-20.09,30.03-29.34,45.31-14.32,23.66-17.11,51.47-5.94,77.11.77,1.77,3.35.24,2.59-1.51Z"/>
  </g>
</svg>